<svg width="192" height="192" viewBox="0 0 192 192" fill="none" xmlns="http://www.w3.org/2000/svg">
<path d="M43.7217 110.649L39.8364 114.57L15.8833 94.5737L39.8364 74.5771L43.7217 78.5337L24.2954 94.5024L43.7217 110.649ZM85.604 63.6343L61.1519 121.664H55.2349L79.687 63.6343H85.604ZM127.558 95.4648C127.558 98.6491 127.106 101.429 126.203 103.806C125.324 106.182 124.1 108.154 122.532 109.723C120.963 111.291 119.11 112.467 116.971 113.251C114.833 114.036 112.516 114.428 110.021 114.428C108.88 114.428 107.739 114.368 106.599 114.25C105.482 114.131 104.341 113.929 103.177 113.644V128.614H96.9746V78.2129H102.5L102.892 84.2012C104.674 81.7536 106.575 80.0426 108.595 79.0684C110.615 78.0703 112.801 77.5713 115.153 77.5713C117.197 77.5713 118.991 77.999 120.536 78.8545C122.08 79.71 123.375 80.9219 124.421 82.4902C125.466 84.0348 126.251 85.9121 126.773 88.1221C127.296 90.3083 127.558 92.7559 127.558 95.4648ZM121.213 95.75C121.213 93.8727 121.07 92.1499 120.785 90.5815C120.524 89.0132 120.096 87.6706 119.502 86.5537C118.908 85.4368 118.147 84.5695 117.221 83.9517C116.294 83.3101 115.189 82.9893 113.906 82.9893C113.122 82.9893 112.326 83.12 111.518 83.3813C110.71 83.619 109.866 84.0348 108.987 84.6289C108.131 85.1992 107.216 85.9715 106.242 86.9458C105.292 87.8963 104.27 89.0845 103.177 90.5103V107.869C104.317 108.344 105.517 108.725 106.777 109.01C108.036 109.271 109.272 109.402 110.484 109.402C113.834 109.402 116.46 108.273 118.361 106.016C120.262 103.734 121.213 100.312 121.213 95.75ZM138.857 78.5337L142.707 74.5771L166.66 94.5737L142.707 114.57L138.857 110.649L158.283 94.645L138.857 78.5337Z" fill="white"/>
</svg>
