<svg width="471" height="215" viewBox="0 0 471 215" fill="none" xmlns="http://www.w3.org/2000/svg">
<path d="M58.8242 126.41L53.502 131.781L20.6895 104.389L53.502 76.9961L58.8242 82.416L32.2129 104.291L58.8242 126.41ZM116.197 62.0059L82.7012 141.498H74.5957L108.092 62.0059H116.197ZM134.166 82.416L139.439 76.9961L172.252 104.389L139.439 131.781L134.166 126.41L160.777 104.486L134.166 82.416Z" fill="black"/>
<path d="M212.859 92.8125C212.859 94.9062 212.562 96.7344 211.969 98.2969C211.391 99.8594 210.586 101.156 209.555 102.188C208.523 103.219 207.305 103.992 205.898 104.508C204.492 105.023 202.969 105.281 201.328 105.281C200.578 105.281 199.828 105.242 199.078 105.164C198.344 105.086 197.594 104.953 196.828 104.766V114.609H192.75V81.4688H196.383L196.641 85.4062C197.812 83.7969 199.062 82.6719 200.391 82.0312C201.719 81.375 203.156 81.0469 204.703 81.0469C206.047 81.0469 207.227 81.3281 208.242 81.8906C209.258 82.4531 210.109 83.25 210.797 84.2812C211.484 85.2969 212 86.5312 212.344 87.9844C212.688 89.4219 212.859 91.0312 212.859 92.8125ZM208.688 93C208.688 91.7656 208.594 90.6328 208.406 89.6016C208.234 88.5703 207.953 87.6875 207.562 86.9531C207.172 86.2188 206.672 85.6484 206.062 85.2422C205.453 84.8203 204.727 84.6094 203.883 84.6094C203.367 84.6094 202.844 84.6953 202.312 84.8672C201.781 85.0234 201.227 85.2969 200.648 85.6875C200.086 86.0625 199.484 86.5703 198.844 87.2109C198.219 87.8359 197.547 88.6172 196.828 89.5547V100.969C197.578 101.281 198.367 101.531 199.195 101.719C200.023 101.891 200.836 101.977 201.633 101.977C203.836 101.977 205.562 101.234 206.812 99.75C208.062 98.25 208.688 96 208.688 93ZM238.055 105H233.977V89.9766C233.977 88.1641 233.633 86.8125 232.945 85.9219C232.273 85.0156 231.305 84.5625 230.039 84.5625C229.492 84.5625 228.977 84.6406 228.492 84.7969C228.023 84.9375 227.531 85.1953 227.016 85.5703C226.5 85.9297 225.938 86.4219 225.328 87.0469C224.719 87.6719 224.016 88.4531 223.219 89.3906V105H219.141V71.8828H223.219V81.4688L223.078 85.1719C223.719 84.4062 224.344 83.7656 224.953 83.25C225.578 82.7188 226.195 82.2891 226.805 81.9609C227.43 81.6328 228.062 81.3984 228.703 81.2578C229.344 81.1172 230.008 81.0469 230.695 81.0469C233.039 81.0469 234.852 81.7656 236.133 83.2031C237.414 84.625 238.055 86.7734 238.055 89.6484V105ZM266.016 93.0469C266.016 94.875 265.758 96.5547 265.242 98.0859C264.727 99.6016 263.984 100.906 263.016 102C262.047 103.078 260.867 103.922 259.477 104.531C258.086 105.125 256.508 105.422 254.742 105.422C253.055 105.422 251.539 105.164 250.195 104.648C248.867 104.117 247.734 103.344 246.797 102.328C245.875 101.312 245.164 100.055 244.664 98.5547C244.18 97.0547 243.938 95.3281 243.938 93.375C243.938 91.5469 244.195 89.8828 244.711 88.3828C245.227 86.8672 245.969 85.5703 246.938 84.4922C247.906 83.3984 249.086 82.5547 250.477 81.9609C251.867 81.3516 253.445 81.0469 255.211 81.0469C256.898 81.0469 258.406 81.3125 259.734 81.8438C261.078 82.3594 262.211 83.125 263.133 84.1406C264.07 85.1406 264.781 86.3906 265.266 87.8906C265.766 89.3906 266.016 91.1094 266.016 93.0469ZM261.844 93.2344C261.844 91.7812 261.68 90.5156 261.352 89.4375C261.039 88.3438 260.586 87.4375 259.992 86.7188C259.398 85.9844 258.672 85.4375 257.812 85.0781C256.969 84.7031 256.023 84.5156 254.977 84.5156C253.758 84.5156 252.711 84.7578 251.836 85.2422C250.977 85.7109 250.266 86.3438 249.703 87.1406C249.156 87.9375 248.75 88.8672 248.484 89.9297C248.234 90.9766 248.109 92.0781 248.109 93.2344C248.109 94.6875 248.266 95.9609 248.578 97.0547C248.906 98.1484 249.367 99.0625 249.961 99.7969C250.555 100.516 251.273 101.062 252.117 101.438C252.961 101.797 253.914 101.977 254.977 101.977C256.195 101.977 257.234 101.742 258.094 101.273C258.969 100.789 259.68 100.148 260.227 99.3516C260.789 98.5547 261.195 97.6328 261.445 96.5859C261.711 95.5234 261.844 94.4062 261.844 93.2344ZM290.883 104.672C289.961 104.906 289.008 105.07 288.023 105.164C287.039 105.273 286.039 105.328 285.023 105.328C282.07 105.328 279.867 104.664 278.414 103.336C276.961 101.992 276.234 99.9375 276.234 97.1719V84.8906H269.648V81.4688H276.234V75L280.312 73.9453V81.4688H290.883V84.8906H280.312V96.8438C280.312 98.5312 280.758 99.7969 281.648 100.641C282.555 101.469 283.883 101.883 285.633 101.883C286.383 101.883 287.203 101.828 288.094 101.719C288.984 101.594 289.914 101.406 290.883 101.156V104.672ZM318.797 93.0469C318.797 94.875 318.539 96.5547 318.023 98.0859C317.508 99.6016 316.766 100.906 315.797 102C314.828 103.078 313.648 103.922 312.258 104.531C310.867 105.125 309.289 105.422 307.523 105.422C305.836 105.422 304.32 105.164 302.977 104.648C301.648 104.117 300.516 103.344 299.578 102.328C298.656 101.312 297.945 100.055 297.445 98.5547C296.961 97.0547 296.719 95.3281 296.719 93.375C296.719 91.5469 296.977 89.8828 297.492 88.3828C298.008 86.8672 298.75 85.5703 299.719 84.4922C300.688 83.3984 301.867 82.5547 303.258 81.9609C304.648 81.3516 306.227 81.0469 307.992 81.0469C309.68 81.0469 311.188 81.3125 312.516 81.8438C313.859 82.3594 314.992 83.125 315.914 84.1406C316.852 85.1406 317.562 86.3906 318.047 87.8906C318.547 89.3906 318.797 91.1094 318.797 93.0469ZM314.625 93.2344C314.625 91.7812 314.461 90.5156 314.133 89.4375C313.82 88.3438 313.367 87.4375 312.773 86.7188C312.18 85.9844 311.453 85.4375 310.594 85.0781C309.75 84.7031 308.805 84.5156 307.758 84.5156C306.539 84.5156 305.492 84.7578 304.617 85.2422C303.758 85.7109 303.047 86.3438 302.484 87.1406C301.938 87.9375 301.531 88.8672 301.266 89.9297C301.016 90.9766 300.891 92.0781 300.891 93.2344C300.891 94.6875 301.047 95.9609 301.359 97.0547C301.688 98.1484 302.148 99.0625 302.742 99.7969C303.336 100.516 304.055 101.062 304.898 101.438C305.742 101.797 306.695 101.977 307.758 101.977C308.977 101.977 310.016 101.742 310.875 101.273C311.75 100.789 312.461 100.148 313.008 99.3516C313.57 98.5547 313.977 97.6328 314.227 96.5859C314.492 95.5234 314.625 94.4062 314.625 93.2344ZM322.5 81.4688H327.141L332.906 97.0312L334.148 100.828L335.438 96.9375L341.156 81.4688H345.633L336.398 105H331.711L322.5 81.4688ZM366.211 105L366.117 101.836C364.836 103.102 363.531 104.016 362.203 104.578C360.891 105.141 359.508 105.422 358.055 105.422C356.711 105.422 355.562 105.25 354.609 104.906C353.656 104.562 352.867 104.094 352.242 103.5C351.633 102.891 351.18 102.18 350.883 101.367C350.602 100.555 350.461 99.6719 350.461 98.7188C350.461 96.3594 351.336 94.5156 353.086 93.1875C354.852 91.8438 357.453 91.1719 360.891 91.1719H365.766V89.1094C365.766 87.7188 365.32 86.6094 364.43 85.7812C363.539 84.9375 362.18 84.5156 360.352 84.5156C359.023 84.5156 357.711 84.6641 356.414 84.9609C355.133 85.2578 353.805 85.6797 352.43 86.2266V82.5469C352.945 82.3594 353.516 82.1797 354.141 82.0078C354.781 81.8203 355.453 81.6562 356.156 81.5156C356.859 81.375 357.594 81.2656 358.359 81.1875C359.125 81.0938 359.898 81.0469 360.68 81.0469C362.102 81.0469 363.383 81.2031 364.523 81.5156C365.664 81.8281 366.625 82.3047 367.406 82.9453C368.203 83.5859 368.812 84.3906 369.234 85.3594C369.656 86.3281 369.867 87.4688 369.867 88.7812V105H366.211ZM365.766 94.2891H360.586C359.57 94.2891 358.695 94.3906 357.961 94.5938C357.227 94.7969 356.625 95.0859 356.156 95.4609C355.688 95.8359 355.336 96.2891 355.102 96.8203C354.883 97.3359 354.773 97.9219 354.773 98.5781C354.773 99.0312 354.844 99.4688 354.984 99.8906C355.125 100.297 355.352 100.664 355.664 100.992C355.977 101.305 356.383 101.555 356.883 101.742C357.383 101.93 357.992 102.023 358.711 102.023C359.648 102.023 360.719 101.742 361.922 101.18C363.141 100.602 364.422 99.6953 365.766 98.4609V94.2891ZM378.445 81.4688H382.172L382.289 85.8047C383.68 84.1328 385.047 82.9219 386.391 82.1719C387.75 81.4219 389.117 81.0469 390.492 81.0469C392.93 81.0469 394.773 81.8359 396.023 83.4141C397.289 84.9922 397.875 87.3359 397.781 90.4453H393.656C393.703 88.3828 393.398 86.8906 392.742 85.9688C392.102 85.0312 391.156 84.5625 389.906 84.5625C389.359 84.5625 388.805 84.6641 388.242 84.8672C387.695 85.0547 387.125 85.3672 386.531 85.8047C385.953 86.2266 385.336 86.7734 384.68 87.4453C384.023 88.1172 383.32 88.9297 382.57 89.8828V105H378.445V81.4688ZM424.359 93.0469C424.359 94.875 424.102 96.5547 423.586 98.0859C423.07 99.6016 422.328 100.906 421.359 102C420.391 103.078 419.211 103.922 417.82 104.531C416.43 105.125 414.852 105.422 413.086 105.422C411.398 105.422 409.883 105.164 408.539 104.648C407.211 104.117 406.078 103.344 405.141 102.328C404.219 101.312 403.508 100.055 403.008 98.5547C402.523 97.0547 402.281 95.3281 402.281 93.375C402.281 91.5469 402.539 89.8828 403.055 88.3828C403.57 86.8672 404.312 85.5703 405.281 84.4922C406.25 83.3984 407.43 82.5547 408.82 81.9609C410.211 81.3516 411.789 81.0469 413.555 81.0469C415.242 81.0469 416.75 81.3125 418.078 81.8438C419.422 82.3594 420.555 83.125 421.477 84.1406C422.414 85.1406 423.125 86.3906 423.609 87.8906C424.109 89.3906 424.359 91.1094 424.359 93.0469ZM420.188 93.2344C420.188 91.7812 420.023 90.5156 419.695 89.4375C419.383 88.3438 418.93 87.4375 418.336 86.7188C417.742 85.9844 417.016 85.4375 416.156 85.0781C415.312 84.7031 414.367 84.5156 413.32 84.5156C412.102 84.5156 411.055 84.7578 410.18 85.2422C409.32 85.7109 408.609 86.3438 408.047 87.1406C407.5 87.9375 407.094 88.8672 406.828 89.9297C406.578 90.9766 406.453 92.0781 406.453 93.2344C406.453 94.6875 406.609 95.9609 406.922 97.0547C407.25 98.1484 407.711 99.0625 408.305 99.7969C408.898 100.516 409.617 101.062 410.461 101.438C411.305 101.797 412.258 101.977 413.32 101.977C414.539 101.977 415.578 101.742 416.438 101.273C417.312 100.789 418.023 100.148 418.57 99.3516C419.133 98.5547 419.539 97.6328 419.789 96.5859C420.055 95.5234 420.188 94.4062 420.188 93.2344ZM428.062 81.4688H432.703L438.469 97.0312L439.711 100.828L441 96.9375L446.719 81.4688H451.195L441.961 105H437.273L428.062 81.4688Z" fill="black"/>
<path d="M216.445 137.188C216.305 139.328 216.016 141.523 215.578 143.773C215.156 146.023 214.578 148.203 213.844 150.312C213.125 152.422 212.25 154.398 211.219 156.242C210.188 158.086 208.992 159.672 207.633 161H203.109L202.055 153.453L201.82 150.828L200.531 153.523L196.594 161H190.148L191.555 137.188H196.875L195.914 150.641L195.586 154.32L197.203 151.016L201.047 143.773H205.406L206.531 150.969L206.953 154.367C207.656 153.258 208.258 152.008 208.758 150.617C209.258 149.227 209.672 147.773 210 146.258C210.328 144.742 210.578 143.211 210.75 141.664C210.938 140.117 211.062 138.625 211.125 137.188H216.445ZM223.172 151.062C223.141 151.25 223.117 151.469 223.102 151.719C223.086 151.953 223.078 152.219 223.078 152.516C223.078 153.938 223.523 155.039 224.414 155.82C225.32 156.586 226.648 156.969 228.398 156.969C229.57 156.969 230.828 156.883 232.172 156.711C233.516 156.523 234.805 156.258 236.039 155.914V160.367C234.727 160.711 233.312 160.992 231.797 161.211C230.297 161.43 228.797 161.539 227.297 161.539C225.766 161.539 224.391 161.352 223.172 160.977C221.953 160.602 220.922 160.047 220.078 159.312C219.234 158.578 218.586 157.656 218.133 156.547C217.68 155.438 217.453 154.141 217.453 152.656C217.453 150.5 217.781 148.453 218.438 146.516C219.109 144.578 220.047 142.883 221.25 141.43C222.469 139.961 223.93 138.805 225.633 137.961C227.336 137.102 229.234 136.672 231.328 136.672C232.688 136.672 233.891 136.828 234.938 137.141C236 137.453 236.891 137.891 237.609 138.453C238.344 139.016 238.898 139.695 239.273 140.492C239.664 141.273 239.859 142.141 239.859 143.094C239.859 144.297 239.617 145.391 239.133 146.375C238.648 147.344 237.867 148.18 236.789 148.883C235.711 149.57 234.305 150.109 232.57 150.5C230.852 150.875 228.758 151.062 226.289 151.062H223.172ZM226.57 146.984C228.211 146.984 229.531 146.891 230.531 146.703C231.531 146.516 232.305 146.273 232.852 145.977C233.414 145.664 233.789 145.305 233.977 144.898C234.164 144.492 234.258 144.07 234.258 143.633C234.258 142.805 233.938 142.148 233.297 141.664C232.656 141.18 231.805 140.938 230.742 140.938C229.883 140.938 229.094 141.102 228.375 141.43C227.656 141.742 227.016 142.172 226.453 142.719C225.906 143.266 225.43 143.906 225.023 144.641C224.633 145.375 224.32 146.156 224.086 146.984H226.57ZM266.602 144.922C266.602 147.328 266.281 149.539 265.641 151.555C265 153.57 264.07 155.312 262.852 156.781C261.633 158.234 260.141 159.375 258.375 160.203C256.609 161.016 254.602 161.422 252.352 161.422C251.336 161.422 250.398 161.383 249.539 161.305C248.68 161.242 247.859 161.148 247.078 161.023C246.312 160.898 245.578 160.75 244.875 160.578C244.188 160.406 243.508 160.211 242.836 159.992L249.258 127.883H254.977L253.359 136.039L251.672 140.984C252.094 140.312 252.594 139.711 253.172 139.18C253.75 138.648 254.383 138.195 255.07 137.82C255.758 137.445 256.477 137.164 257.227 136.977C257.992 136.773 258.766 136.672 259.547 136.672C261.859 136.672 263.609 137.391 264.797 138.828C266 140.266 266.602 142.297 266.602 144.922ZM260.648 145.297C260.648 144.047 260.43 143.094 259.992 142.438C259.57 141.781 258.922 141.453 258.047 141.453C257.562 141.453 257.055 141.586 256.523 141.852C256.008 142.117 255.484 142.484 254.953 142.953C254.438 143.406 253.93 143.945 253.43 144.57C252.945 145.18 252.492 145.836 252.07 146.539C251.664 147.227 251.312 147.938 251.016 148.672C250.719 149.406 250.508 150.125 250.383 150.828L249.258 156.43C249.758 156.602 250.273 156.734 250.805 156.828C251.336 156.922 251.898 156.969 252.492 156.969C253.602 156.969 254.57 156.773 255.398 156.383C256.242 155.977 256.961 155.453 257.555 154.812C258.164 154.156 258.664 153.414 259.055 152.586C259.461 151.758 259.781 150.914 260.016 150.055C260.25 149.195 260.414 148.352 260.508 147.523C260.602 146.695 260.648 145.953 260.648 145.297ZM270 155.469C271.594 156.031 273.117 156.453 274.57 156.734C276.023 157.016 277.375 157.156 278.625 157.156C280.453 157.156 281.781 156.867 282.609 156.289C283.453 155.711 283.875 154.977 283.875 154.086C283.875 153.773 283.812 153.492 283.688 153.242C283.562 152.977 283.336 152.727 283.008 152.492C282.68 152.258 282.227 152.023 281.648 151.789C281.086 151.555 280.352 151.297 279.445 151.016C277.258 150.344 275.617 149.438 274.523 148.297C273.43 147.156 272.883 145.711 272.883 143.961C272.883 142.961 273.133 142.023 273.633 141.148C274.133 140.258 274.859 139.484 275.812 138.828C276.781 138.156 277.977 137.633 279.398 137.258C280.82 136.867 282.453 136.672 284.297 136.672C285.859 136.672 287.195 136.742 288.305 136.883C289.414 137.008 290.383 137.156 291.211 137.328V141.992C289.695 141.539 288.359 141.242 287.203 141.102C286.047 140.961 285 140.891 284.062 140.891C283.094 140.891 282.281 140.977 281.625 141.148C280.969 141.305 280.445 141.531 280.055 141.828C279.664 142.125 279.383 142.438 279.211 142.766C279.055 143.078 278.977 143.383 278.977 143.68C278.977 144.039 279.047 144.359 279.188 144.641C279.328 144.922 279.578 145.188 279.938 145.438C280.297 145.688 280.781 145.938 281.391 146.188C282 146.438 282.766 146.703 283.688 146.984C285.812 147.656 287.406 148.516 288.469 149.562C289.531 150.609 290.062 151.906 290.062 153.453C290.062 154.844 289.766 156.047 289.172 157.062C288.578 158.062 287.766 158.898 286.734 159.57C285.703 160.242 284.492 160.734 283.102 161.047C281.711 161.375 280.219 161.539 278.625 161.539C276.828 161.539 275.219 161.453 273.797 161.281C272.391 161.125 271.125 160.906 270 160.625V155.469ZM309.914 153.031C309.633 154.516 309.641 155.562 309.938 156.172C310.234 156.766 310.82 157.062 311.695 157.062C312.43 157.062 313.242 156.906 314.133 156.594C315.023 156.266 316.039 155.828 317.18 155.281V159.664C316.164 160.211 315.07 160.656 313.898 161C312.742 161.359 311.562 161.539 310.359 161.539C307.688 161.539 305.828 160.852 304.781 159.477C303.734 158.086 303.516 155.875 304.125 152.844L305.648 145.156C305.945 143.672 305.938 142.633 305.625 142.039C305.312 141.43 304.727 141.125 303.867 141.125C303.148 141.125 302.336 141.289 301.43 141.617C300.539 141.93 299.531 142.359 298.406 142.906V138.523C299.422 137.961 300.508 137.508 301.664 137.164C302.82 136.82 304.008 136.648 305.227 136.648C307.883 136.648 309.734 137.344 310.781 138.734C311.828 140.125 312.055 142.328 311.461 145.344L309.914 153.031ZM314.625 130.461C314.625 131.023 314.516 131.547 314.297 132.031C314.078 132.516 313.781 132.938 313.406 133.297C313.047 133.641 312.625 133.914 312.141 134.117C311.672 134.305 311.172 134.398 310.641 134.398C310.094 134.398 309.594 134.305 309.141 134.117C308.688 133.914 308.297 133.656 307.969 133.344C307.641 133.016 307.383 132.641 307.195 132.219C307.023 131.781 306.938 131.328 306.938 130.859C306.938 130.297 307.047 129.781 307.266 129.312C307.484 128.828 307.781 128.414 308.156 128.07C308.531 127.711 308.961 127.43 309.445 127.227C309.93 127.023 310.438 126.922 310.969 126.922C311.531 126.922 312.031 127.023 312.469 127.227C312.922 127.414 313.305 127.672 313.617 128C313.945 128.328 314.195 128.703 314.367 129.125C314.539 129.547 314.625 129.992 314.625 130.461ZM341.977 160.672C340.898 160.938 339.82 161.148 338.742 161.305C337.68 161.461 336.68 161.539 335.742 161.539C334.18 161.539 332.836 161.367 331.711 161.023C330.602 160.68 329.719 160.133 329.062 159.383C328.406 158.633 327.992 157.656 327.82 156.453C327.664 155.25 327.758 153.789 328.102 152.07L330.211 141.641H323.836L324.703 137.188H331.078L332.32 131.094L338.484 129.57L336.938 137.188H346.195L345.328 141.641H336.07L333.961 152.117C333.805 152.914 333.727 153.617 333.727 154.227C333.742 154.82 333.859 155.305 334.078 155.68C334.312 156.055 334.656 156.352 335.109 156.57C335.562 156.773 336.156 156.875 336.891 156.875C337.766 156.875 338.633 156.797 339.492 156.641C340.352 156.484 341.18 156.312 341.977 156.125V160.672ZM355.125 151.062C355.094 151.25 355.07 151.469 355.055 151.719C355.039 151.953 355.031 152.219 355.031 152.516C355.031 153.938 355.477 155.039 356.367 155.82C357.273 156.586 358.602 156.969 360.352 156.969C361.523 156.969 362.781 156.883 364.125 156.711C365.469 156.523 366.758 156.258 367.992 155.914V160.367C366.68 160.711 365.266 160.992 363.75 161.211C362.25 161.43 360.75 161.539 359.25 161.539C357.719 161.539 356.344 161.352 355.125 160.977C353.906 160.602 352.875 160.047 352.031 159.312C351.188 158.578 350.539 157.656 350.086 156.547C349.633 155.438 349.406 154.141 349.406 152.656C349.406 150.5 349.734 148.453 350.391 146.516C351.062 144.578 352 142.883 353.203 141.43C354.422 139.961 355.883 138.805 357.586 137.961C359.289 137.102 361.188 136.672 363.281 136.672C364.641 136.672 365.844 136.828 366.891 137.141C367.953 137.453 368.844 137.891 369.562 138.453C370.297 139.016 370.852 139.695 371.227 140.492C371.617 141.273 371.812 142.141 371.812 143.094C371.812 144.297 371.57 145.391 371.086 146.375C370.602 147.344 369.82 148.18 368.742 148.883C367.664 149.57 366.258 150.109 364.523 150.5C362.805 150.875 360.711 151.062 358.242 151.062H355.125ZM358.523 146.984C360.164 146.984 361.484 146.891 362.484 146.703C363.484 146.516 364.258 146.273 364.805 145.977C365.367 145.664 365.742 145.305 365.93 144.898C366.117 144.492 366.211 144.07 366.211 143.633C366.211 142.805 365.891 142.148 365.25 141.664C364.609 141.18 363.758 140.938 362.695 140.938C361.836 140.938 361.047 141.102 360.328 141.43C359.609 141.742 358.969 142.172 358.406 142.719C357.859 143.266 357.383 143.906 356.977 144.641C356.586 145.375 356.273 146.156 356.039 146.984H358.523ZM375.562 155.469C377.156 156.031 378.68 156.453 380.133 156.734C381.586 157.016 382.938 157.156 384.188 157.156C386.016 157.156 387.344 156.867 388.172 156.289C389.016 155.711 389.438 154.977 389.438 154.086C389.438 153.773 389.375 153.492 389.25 153.242C389.125 152.977 388.898 152.727 388.57 152.492C388.242 152.258 387.789 152.023 387.211 151.789C386.648 151.555 385.914 151.297 385.008 151.016C382.82 150.344 381.18 149.438 380.086 148.297C378.992 147.156 378.445 145.711 378.445 143.961C378.445 142.961 378.695 142.023 379.195 141.148C379.695 140.258 380.422 139.484 381.375 138.828C382.344 138.156 383.539 137.633 384.961 137.258C386.383 136.867 388.016 136.672 389.859 136.672C391.422 136.672 392.758 136.742 393.867 136.883C394.977 137.008 395.945 137.156 396.773 137.328V141.992C395.258 141.539 393.922 141.242 392.766 141.102C391.609 140.961 390.562 140.891 389.625 140.891C388.656 140.891 387.844 140.977 387.188 141.148C386.531 141.305 386.008 141.531 385.617 141.828C385.227 142.125 384.945 142.438 384.773 142.766C384.617 143.078 384.539 143.383 384.539 143.68C384.539 144.039 384.609 144.359 384.75 144.641C384.891 144.922 385.141 145.188 385.5 145.438C385.859 145.688 386.344 145.938 386.953 146.188C387.562 146.438 388.328 146.703 389.25 146.984C391.375 147.656 392.969 148.516 394.031 149.562C395.094 150.609 395.625 151.906 395.625 153.453C395.625 154.844 395.328 156.047 394.734 157.062C394.141 158.062 393.328 158.898 392.297 159.57C391.266 160.242 390.055 160.734 388.664 161.047C387.273 161.375 385.781 161.539 384.188 161.539C382.391 161.539 380.781 161.453 379.359 161.281C377.953 161.125 376.688 160.906 375.562 160.625V155.469Z" fill="black"/>
<path d="M199.266 57V48.5508C199.266 48.1836 199.25 47.8828 199.219 47.6484C199.195 47.4141 199.152 47.2305 199.09 47.0977C199.035 46.957 198.961 46.8594 198.867 46.8047C198.781 46.75 198.672 46.7227 198.539 46.7227C198.383 46.7227 198.238 46.7695 198.105 46.8633C197.973 46.957 197.828 47.1094 197.672 47.3203C197.523 47.5312 197.355 47.8125 197.168 48.1641C196.988 48.5078 196.773 48.9336 196.523 49.4414V57H194.66V48.7734C194.66 48.3438 194.645 47.9961 194.613 47.7305C194.59 47.4648 194.547 47.2578 194.484 47.1094C194.43 46.9609 194.355 46.8594 194.262 46.8047C194.168 46.75 194.055 46.7227 193.922 46.7227C193.781 46.7227 193.648 46.7617 193.523 46.8398C193.398 46.918 193.258 47.0586 193.102 47.2617C192.953 47.4648 192.785 47.7422 192.598 48.0938C192.41 48.4453 192.188 48.8945 191.93 49.4414V57H190.055V45.2344H191.613L191.707 47.4727C191.91 47.0273 192.105 46.6484 192.293 46.3359C192.488 46.0234 192.688 45.7734 192.891 45.5859C193.094 45.3906 193.309 45.25 193.535 45.1641C193.77 45.0703 194.027 45.0234 194.309 45.0234C194.941 45.0234 195.422 45.2305 195.75 45.6445C196.078 46.0586 196.242 46.6992 196.242 47.5664C196.43 47.1602 196.613 46.8008 196.793 46.4883C196.973 46.168 197.164 45.9023 197.367 45.6914C197.578 45.4727 197.809 45.3086 198.059 45.1992C198.309 45.082 198.598 45.0234 198.926 45.0234C200.402 45.0234 201.141 46.1602 201.141 48.4336V57H199.266ZM211.629 57L211.582 55.418C210.941 56.0508 210.289 56.5078 209.625 56.7891C208.969 57.0703 208.277 57.2109 207.551 57.2109C206.879 57.2109 206.305 57.125 205.828 56.9531C205.352 56.7812 204.957 56.5469 204.645 56.25C204.34 55.9453 204.113 55.5898 203.965 55.1836C203.824 54.7773 203.754 54.3359 203.754 53.8594C203.754 52.6797 204.191 51.7578 205.066 51.0938C205.949 50.4219 207.25 50.0859 208.969 50.0859H211.406V49.0547C211.406 48.3594 211.184 47.8047 210.738 47.3906C210.293 46.9688 209.613 46.7578 208.699 46.7578C208.035 46.7578 207.379 46.832 206.73 46.9805C206.09 47.1289 205.426 47.3398 204.738 47.6133V45.7734C204.996 45.6797 205.281 45.5898 205.594 45.5039C205.914 45.4102 206.25 45.3281 206.602 45.2578C206.953 45.1875 207.32 45.1328 207.703 45.0938C208.086 45.0469 208.473 45.0234 208.863 45.0234C209.574 45.0234 210.215 45.1016 210.785 45.2578C211.355 45.4141 211.836 45.6523 212.227 45.9727C212.625 46.293 212.93 46.6953 213.141 47.1797C213.352 47.6641 213.457 48.2344 213.457 48.8906V57H211.629ZM211.406 51.6445H208.816C208.309 51.6445 207.871 51.6953 207.504 51.7969C207.137 51.8984 206.836 52.043 206.602 52.2305C206.367 52.418 206.191 52.6445 206.074 52.9102C205.965 53.168 205.91 53.4609 205.91 53.7891C205.91 54.0156 205.945 54.2344 206.016 54.4453C206.086 54.6484 206.199 54.832 206.355 54.9961C206.512 55.1523 206.715 55.2773 206.965 55.3711C207.215 55.4648 207.52 55.5117 207.879 55.5117C208.348 55.5117 208.883 55.3711 209.484 55.0898C210.094 54.8008 210.734 54.3477 211.406 53.7305V51.6445ZM216.668 51.3633C216.668 50.3633 216.805 49.4766 217.078 48.7031C217.352 47.9219 217.738 47.2656 218.238 46.7344C218.746 46.1953 219.352 45.7891 220.055 45.5156C220.766 45.2344 221.555 45.0938 222.422 45.0938C222.797 45.0938 223.164 45.1172 223.523 45.1641C223.891 45.2109 224.25 45.2852 224.602 45.3867V40.4414H226.652V57H224.824L224.754 54.7734C224.184 55.6016 223.566 56.2148 222.902 56.6133C222.238 57.0117 221.52 57.2109 220.746 57.2109C220.074 57.2109 219.48 57.0703 218.965 56.7891C218.457 56.5078 218.031 56.1133 217.688 55.6055C217.352 55.0898 217.098 54.4727 216.926 53.7539C216.754 53.0352 216.668 52.2383 216.668 51.3633ZM218.754 51.2344C218.754 52.6562 218.961 53.7188 219.375 54.4219C219.797 55.1172 220.391 55.4648 221.156 55.4648C221.672 55.4648 222.215 55.2344 222.785 54.7734C223.363 54.3125 223.969 53.6289 224.602 52.7227V47.2617C224.266 47.1055 223.895 46.9883 223.488 46.9102C223.082 46.8242 222.68 46.7812 222.281 46.7812C221.172 46.7812 220.305 47.1406 219.68 47.8594C219.062 48.5781 218.754 49.7031 218.754 51.2344ZM240.398 50.4961C240.398 50.7852 240.395 51.0273 240.387 51.2227C240.379 51.418 240.367 51.6016 240.352 51.7734H232.09C232.09 52.9766 232.426 53.9023 233.098 54.5508C233.77 55.1914 234.738 55.5117 236.004 55.5117C236.348 55.5117 236.691 55.5 237.035 55.4766C237.379 55.4453 237.711 55.4062 238.031 55.3594C238.352 55.3125 238.656 55.2617 238.945 55.207C239.242 55.1445 239.516 55.0781 239.766 55.0078V56.6836C239.211 56.8398 238.582 56.9648 237.879 57.0586C237.184 57.1602 236.461 57.2109 235.711 57.2109C234.703 57.2109 233.836 57.0742 233.109 56.8008C232.383 56.5273 231.785 56.1328 231.316 55.6172C230.855 55.0938 230.512 54.457 230.285 53.707C230.066 52.9492 229.957 52.0938 229.957 51.1406C229.957 50.3125 230.074 49.5312 230.309 48.7969C230.551 48.0547 230.898 47.4062 231.352 46.8516C231.812 46.2891 232.375 45.8438 233.039 45.5156C233.703 45.1875 234.457 45.0234 235.301 45.0234C236.121 45.0234 236.848 45.1523 237.48 45.4102C238.113 45.668 238.645 46.0352 239.074 46.5117C239.512 46.9805 239.84 47.5547 240.059 48.2344C240.285 48.9062 240.398 49.6602 240.398 50.4961ZM238.277 50.2031C238.301 49.6797 238.25 49.2031 238.125 48.7734C238 48.3359 237.805 47.9609 237.539 47.6484C237.281 47.3359 236.957 47.0938 236.566 46.9219C236.176 46.7422 235.723 46.6523 235.207 46.6523C234.762 46.6523 234.355 46.7383 233.988 46.9102C233.621 47.082 233.305 47.3242 233.039 47.6367C232.773 47.9492 232.559 48.3242 232.395 48.7617C232.23 49.1992 232.129 49.6797 232.09 50.2031H238.277ZM266.906 50.9062C266.906 51.8828 266.77 52.7578 266.496 53.5312C266.23 54.2969 265.848 54.9492 265.348 55.4883C264.855 56.0195 264.254 56.4297 263.543 56.7188C262.832 57 262.031 57.1406 261.141 57.1406C260.445 57.1406 259.734 57.0742 259.008 56.9414C258.281 56.8086 257.562 56.5977 256.852 56.3086V40.4414H258.891V45L258.797 47.1797C259.383 46.3906 260.008 45.8359 260.672 45.5156C261.344 45.1875 262.062 45.0234 262.828 45.0234C263.5 45.0234 264.09 45.1641 264.598 45.4453C265.105 45.7266 265.531 46.125 265.875 46.6406C266.219 47.1484 266.477 47.7656 266.648 48.4922C266.82 49.2109 266.906 50.0156 266.906 50.9062ZM264.82 51C264.82 50.3828 264.773 49.8164 264.68 49.3008C264.594 48.7852 264.453 48.3438 264.258 47.9766C264.062 47.6094 263.812 47.3242 263.508 47.1211C263.203 46.9102 262.84 46.8047 262.418 46.8047C262.16 46.8047 261.898 46.8477 261.633 46.9336C261.367 47.0117 261.09 47.1484 260.801 47.3438C260.52 47.5312 260.219 47.7852 259.898 48.1055C259.586 48.418 259.25 48.8086 258.891 49.2773V54.9844C259.289 55.1406 259.695 55.2656 260.109 55.3594C260.523 55.4453 260.918 55.4883 261.293 55.4883C261.762 55.4883 262.207 55.4141 262.629 55.2656C263.059 55.1172 263.434 54.8711 263.754 54.5273C264.082 54.1758 264.34 53.7148 264.527 53.1445C264.723 52.5664 264.82 51.8516 264.82 51ZM280.512 45.2344L276.504 55.7578C276.09 56.8281 275.66 57.75 275.215 58.5234C274.777 59.2969 274.297 59.9297 273.773 60.4219C273.25 60.9219 272.676 61.2891 272.051 61.5234C271.426 61.7578 270.727 61.875 269.953 61.875C269.75 61.875 269.566 61.8711 269.402 61.8633C269.238 61.8555 269.059 61.8438 268.863 61.8281V59.9766C269.035 60 269.223 60.0195 269.426 60.0352C269.629 60.0586 269.844 60.0703 270.07 60.0703C270.445 60.0703 270.793 60.0156 271.113 59.9062C271.441 59.7969 271.75 59.6172 272.039 59.3672C272.328 59.125 272.605 58.8086 272.871 58.418C273.137 58.0273 273.395 57.5547 273.645 57L268.945 45.2344H271.266L274.242 53.0156L274.84 54.8438L275.52 52.9688L278.273 45.2344H280.512Z" fill="black"/>
</svg>
